<svg width="96" height="21" viewBox="0 0 96 21" fill="none" xmlns="http://www.w3.org/2000/svg">
<path d="M9.45601 20.168C7.87201 20.168 6.41601 19.8 5.08801 19.064C3.77601 18.328 2.72801 17.304 1.94401 15.992C1.17601 14.664 0.792007 13.176 0.792007 11.528C0.792007 9.88 1.17601 8.4 1.94401 7.088C2.72801 5.776 3.77601 4.752 5.08801 4.016C6.41601 3.28 7.87201 2.912 9.45601 2.912C11.04 2.912 12.488 3.28 13.8 4.016C15.128 4.752 16.168 5.776 16.92 7.088C17.688 8.4 18.072 9.88 18.072 11.528C18.072 13.176 17.688 14.664 16.92 15.992C16.152 17.304 15.112 18.328 13.8 19.064C12.488 19.8 11.04 20.168 9.45601 20.168ZM9.45601 16.424C10.8 16.424 11.872 15.976 12.672 15.08C13.488 14.184 13.896 13 13.896 11.528C13.896 10.04 13.488 8.856 12.672 7.976C11.872 7.08 10.8 6.632 9.45601 6.632C8.09601 6.632 7.00801 7.072 6.19201 7.952C5.39201 8.832 4.99201 10.024 4.99201 11.528C4.99201 13.016 5.39201 14.208 6.19201 15.104C7.00801 15.984 8.09601 16.424 9.45601 16.424Z" fill="black"/>
<path d="M33.5792 6.608V20H29.4752V18.176C29.0592 18.768 28.4912 19.248 27.7712 19.616C27.0672 19.968 26.2832 20.144 25.4192 20.144C24.3952 20.144 23.4912 19.92 22.7072 19.472C21.9232 19.008 21.3152 18.344 20.8832 17.48C20.4512 16.616 20.2352 15.6 20.2352 14.432V6.608H24.3152V13.88C24.3152 14.776 24.5472 15.472 25.0112 15.968C25.4752 16.464 26.0992 16.712 26.8832 16.712C27.6832 16.712 28.3152 16.464 28.7792 15.968C29.2432 15.472 29.4752 14.776 29.4752 13.88V6.608H33.5792Z" fill="black"/>
<path d="M43.9911 16.52V20H41.9031C40.4151 20 39.2551 19.64 38.4231 18.92C37.5911 18.184 37.1751 16.992 37.1751 15.344V10.016H35.5431V6.608H37.1751V3.344H41.2791V6.608H43.9671V10.016H41.2791V15.392C41.2791 15.792 41.3751 16.08 41.5671 16.256C41.7591 16.432 42.0791 16.52 42.5271 16.52H43.9911Z" fill="black"/>
<path d="M50.3811 2.24V20H46.2771V2.24H50.3811Z" fill="black"/>
<path d="M55.4192 5.216C54.6992 5.216 54.1072 5.008 53.6432 4.592C53.1952 4.16 52.9712 3.632 52.9712 3.008C52.9712 2.368 53.1952 1.84 53.6432 1.424C54.1072 0.992001 54.6992 0.776001 55.4192 0.776001C56.1232 0.776001 56.6992 0.992001 57.1472 1.424C57.6112 1.84 57.8432 2.368 57.8432 3.008C57.8432 3.632 57.6112 4.16 57.1472 4.592C56.6992 5.008 56.1232 5.216 55.4192 5.216ZM57.4592 6.608V20H53.3552V6.608H57.4592Z" fill="black"/>
<path d="M68.5933 6.464C70.1613 6.464 71.4093 6.976 72.3373 8C73.2813 9.008 73.7533 10.4 73.7533 12.176V20H69.6733V12.728C69.6733 11.832 69.4413 11.136 68.9773 10.64C68.5133 10.144 67.8893 9.896 67.1053 9.896C66.3213 9.896 65.6973 10.144 65.2333 10.64C64.7693 11.136 64.5373 11.832 64.5373 12.728V20H60.4333V6.608H64.5373V8.384C64.9533 7.792 65.5133 7.328 66.2173 6.992C66.9213 6.64 67.7133 6.464 68.5933 6.464Z" fill="black"/>
<path d="M89.2292 13.088C89.2292 13.472 89.2052 13.872 89.1572 14.288H79.8692C79.9332 15.12 80.1972 15.76 80.6612 16.208C81.1412 16.64 81.7252 16.856 82.4132 16.856C83.4372 16.856 84.1492 16.424 84.5492 15.56H88.9172C88.6932 16.44 88.2852 17.232 87.6932 17.936C87.1172 18.64 86.3892 19.192 85.5092 19.592C84.6292 19.992 83.6452 20.192 82.5572 20.192C81.2452 20.192 80.0772 19.912 79.0532 19.352C78.0292 18.792 77.2292 17.992 76.6532 16.952C76.0772 15.912 75.7892 14.696 75.7892 13.304C75.7892 11.912 76.0692 10.696 76.6292 9.656C77.2052 8.616 78.0052 7.816 79.0292 7.256C80.0532 6.696 81.2292 6.416 82.5572 6.416C83.8532 6.416 85.0052 6.688 86.0132 7.232C87.0212 7.776 87.8052 8.552 88.3652 9.56C88.9412 10.568 89.2292 11.744 89.2292 13.088ZM85.0292 12.008C85.0292 11.304 84.7892 10.744 84.3092 10.328C83.8292 9.912 83.2292 9.704 82.5092 9.704C81.8212 9.704 81.2372 9.904 80.7572 10.304C80.2932 10.704 80.0052 11.272 79.8932 12.008H85.0292Z" fill="black"/>
<path d="M93.3143 20.192C92.5943 20.192 92.0023 19.984 91.5383 19.568C91.0903 19.136 90.8663 18.608 90.8663 17.984C90.8663 17.344 91.0903 16.808 91.5383 16.376C92.0023 15.944 92.5943 15.728 93.3143 15.728C94.0183 15.728 94.5943 15.944 95.0423 16.376C95.5063 16.808 95.7383 17.344 95.7383 17.984C95.7383 18.608 95.5063 19.136 95.0423 19.568C94.5943 19.984 94.0183 20.192 93.3143 20.192Z" fill="#3284E9"/>
</svg>
