<svg width="95" height="20" viewBox="0 0 95 20" fill="none" xmlns="http://www.w3.org/2000/svg">
<path d="M8.664 19.392C7.08 19.392 5.624 19.024 4.296 18.288C2.984 17.552 1.936 16.528 1.152 15.216C0.384 13.888 0 12.4 0 10.752C0 9.104 0.384 7.624 1.152 6.312C1.936 5 2.984 3.976 4.296 3.24C5.624 2.504 7.08 2.136 8.664 2.136C10.248 2.136 11.696 2.504 13.008 3.24C14.336 3.976 15.376 5 16.128 6.312C16.896 7.624 17.28 9.104 17.28 10.752C17.28 12.4 16.896 13.888 16.128 15.216C15.36 16.528 14.32 17.552 13.008 18.288C11.696 19.024 10.248 19.392 8.664 19.392ZM8.664 15.648C10.008 15.648 11.08 15.2 11.88 14.304C12.696 13.408 13.104 12.224 13.104 10.752C13.104 9.264 12.696 8.08 11.88 7.2C11.08 6.304 10.008 5.856 8.664 5.856C7.304 5.856 6.216 6.296 5.4 7.176C4.6 8.056 4.2 9.248 4.2 10.752C4.2 12.24 4.6 13.432 5.4 14.328C6.216 15.208 7.304 15.648 8.664 15.648Z" fill="white"/>
<path d="M32.7872 5.832V19.224H28.6832V17.4C28.2672 17.992 27.6992 18.472 26.9792 18.84C26.2752 19.192 25.4912 19.368 24.6272 19.368C23.6032 19.368 22.6992 19.144 21.9152 18.696C21.1312 18.232 20.5232 17.568 20.0912 16.704C19.6592 15.84 19.4432 14.824 19.4432 13.656V5.832H23.5232V13.104C23.5232 14 23.7552 14.696 24.2192 15.192C24.6832 15.688 25.3072 15.936 26.0912 15.936C26.8912 15.936 27.5232 15.688 27.9872 15.192C28.4512 14.696 28.6832 14 28.6832 13.104V5.832H32.7872Z" fill="white"/>
<path d="M43.1991 15.744V19.224H41.1111C39.6231 19.224 38.4631 18.864 37.6311 18.144C36.7991 17.408 36.3831 16.216 36.3831 14.568V9.24H34.7511V5.832H36.3831V2.568H40.4871V5.832H43.1751V9.24H40.4871V14.616C40.4871 15.016 40.5831 15.304 40.7751 15.48C40.9671 15.656 41.2871 15.744 41.7351 15.744H43.1991Z" fill="white"/>
<path d="M49.5891 1.464V19.224H45.4851V1.464H49.5891Z" fill="white"/>
<path d="M54.6272 4.44C53.9072 4.44 53.3152 4.232 52.8512 3.816C52.4032 3.384 52.1792 2.856 52.1792 2.232C52.1792 1.592 52.4032 1.064 52.8512 0.648C53.3152 0.216 53.9072 0 54.6272 0C55.3312 0 55.9072 0.216 56.3552 0.648C56.8192 1.064 57.0512 1.592 57.0512 2.232C57.0512 2.856 56.8192 3.384 56.3552 3.816C55.9072 4.232 55.3312 4.44 54.6272 4.44ZM56.6672 5.832V19.224H52.5632V5.832H56.6672Z" fill="white"/>
<path d="M67.8013 5.688C69.3693 5.688 70.6173 6.2 71.5453 7.224C72.4893 8.232 72.9613 9.624 72.9613 11.4V19.224H68.8813V11.952C68.8813 11.056 68.6493 10.36 68.1853 9.864C67.7213 9.368 67.0973 9.12 66.3133 9.12C65.5293 9.12 64.9053 9.368 64.4413 9.864C63.9773 10.36 63.7453 11.056 63.7453 11.952V19.224H59.6413V5.832H63.7453V7.608C64.1613 7.016 64.7213 6.552 65.4253 6.216C66.1293 5.864 66.9213 5.688 67.8013 5.688Z" fill="white"/>
<path d="M88.4372 12.312C88.4372 12.696 88.4132 13.096 88.3652 13.512H79.0772C79.1412 14.344 79.4052 14.984 79.8692 15.432C80.3492 15.864 80.9332 16.08 81.6212 16.08C82.6452 16.08 83.3572 15.648 83.7572 14.784H88.1252C87.9012 15.664 87.4932 16.456 86.9012 17.16C86.3252 17.864 85.5972 18.416 84.7172 18.816C83.8372 19.216 82.8532 19.416 81.7652 19.416C80.4532 19.416 79.2852 19.136 78.2612 18.576C77.2372 18.016 76.4372 17.216 75.8612 16.176C75.2852 15.136 74.9972 13.92 74.9972 12.528C74.9972 11.136 75.2772 9.92 75.8372 8.88C76.4132 7.84 77.2132 7.04 78.2372 6.48C79.2612 5.92 80.4372 5.64 81.7652 5.64C83.0612 5.64 84.2132 5.912 85.2212 6.456C86.2292 7 87.0132 7.776 87.5732 8.784C88.1492 9.792 88.4372 10.968 88.4372 12.312ZM84.2372 11.232C84.2372 10.528 83.9972 9.968 83.5172 9.552C83.0372 9.136 82.4372 8.928 81.7172 8.928C81.0292 8.928 80.4452 9.128 79.9652 9.528C79.5012 9.928 79.2132 10.496 79.1012 11.232H84.2372Z" fill="white"/>
<path d="M92.5222 19.416C91.8022 19.416 91.2102 19.208 90.7462 18.792C90.2982 18.36 90.0742 17.832 90.0742 17.208C90.0742 16.568 90.2982 16.032 90.7462 15.6C91.2102 15.168 91.8022 14.952 92.5222 14.952C93.2262 14.952 93.8023 15.168 94.2503 15.6C94.7143 16.032 94.9463 16.568 94.9463 17.208C94.9463 17.832 94.7143 18.36 94.2503 18.792C93.8023 19.208 93.2262 19.416 92.5222 19.416Z" fill="#3284E9"/>
</svg>
