<svg width="79" height="70" viewBox="0 0 79 70" fill="none" xmlns="http://www.w3.org/2000/svg">
<path d="M25.1445 28.547C24.0272 30.8373 23.2919 33.1183 22.9385 35.3901C22.6167 37.7262 22.7854 39.9594 23.4447 42.0897C24.1355 44.2843 25.3965 46.3415 27.2278 48.2614C29.1099 50.2061 31.7024 51.984 35.0052 53.5952C38.2573 55.1817 41.2385 56.0982 43.9489 56.345C46.64 56.6312 49.0279 56.3784 51.1126 55.5867C53.2481 54.8197 55.1119 53.578 56.7041 51.8616C58.3278 50.2095 59.6983 48.2383 60.8155 45.9481L63.9938 39.4327C65.1303 37.103 65.8595 34.77 66.1813 32.4339C66.5347 30.1621 66.3563 27.9487 65.6463 25.7936C64.987 23.6633 63.726 21.6061 61.8632 19.6219C59.9811 17.6772 57.414 15.9117 54.162 14.3252C50.8591 12.714 47.8621 11.7653 45.171 11.4791C42.5114 11.2571 40.1139 11.5296 37.9784 12.2966C35.8429 13.0636 33.9887 14.2855 32.4158 15.9624C30.8236 17.6788 29.4593 19.7019 28.3228 22.0316L25.1445 28.547ZM32.5911 24.1138C33.4579 22.3369 34.5053 20.7702 35.7331 19.4138C36.9609 18.0574 38.3719 17.0348 39.9661 16.3459C41.611 15.6819 43.4707 15.4158 45.5451 15.5479C47.6195 15.6799 49.9524 16.378 52.5439 17.6422C55.0846 18.8815 57.0454 20.278 58.4263 21.8316C59.8072 23.3851 60.7423 25.0145 61.2315 26.7197C61.7014 28.4643 61.7798 30.2379 61.4666 32.0405C61.1534 33.8431 60.5731 35.6131 59.7255 37.3505L56.5472 43.8659C55.6996 45.6033 54.6619 47.1503 53.4341 48.5067C52.2063 49.8631 50.7699 50.8733 49.1249 51.5374C47.4799 52.2014 45.6203 52.4674 43.5459 52.3354C41.4715 52.2034 39.164 51.5177 36.6233 50.2783C34.0826 49.0389 32.1218 47.6424 30.7409 46.0889C29.3407 44.5748 28.396 42.9652 27.9068 41.26C27.4176 39.5549 27.3296 37.801 27.6428 35.9984C27.956 34.1959 28.546 32.4061 29.4128 30.6292L32.5911 24.1138ZM55.9823 10.5937C60.0982 12.6015 63.3381 14.7931 65.7021 17.1684C68.0468 19.5832 69.675 22.1128 70.5867 24.7573C71.5299 27.4661 71.7854 30.2305 71.3533 33.0505C70.9528 35.9348 70.0494 38.8182 68.6433 41.7008L65.4649 48.2162C64.0588 51.0987 62.352 53.5658 60.3447 55.6174C58.3374 57.669 56.0111 59.1495 53.3658 60.0588C50.7013 61.0077 47.7054 61.2816 44.3783 60.8807C41.0319 60.5192 37.3008 59.3346 33.1849 57.3268C29.069 55.319 25.8387 53.1077 23.494 50.6929C21.13 48.3176 19.5018 45.7879 18.6094 43.104C17.6978 40.4595 17.4326 37.7148 17.8139 34.87C18.1951 32.0252 19.0888 29.1615 20.495 26.2789L23.6734 19.7635C25.0795 16.881 26.7705 14.3818 28.7462 12.2659C30.7535 10.2143 33.0895 8.71405 35.754 7.76522C38.4501 6.88066 41.4714 6.6191 44.8178 6.98056C48.1449 7.3815 51.8664 8.58587 55.9823 10.5937ZM57.6003 7.27677C52.7731 4.92192 48.3779 3.48667 44.4147 2.97101C40.4832 2.51963 36.9495 2.80006 33.8137 3.8123C30.6586 4.86403 27.8794 6.56356 25.4763 8.91088C23.1046 11.3225 21.0809 14.246 19.405 17.6814L16.2267 24.1967C14.5508 27.6321 13.5022 31.0068 13.0807 34.3209C12.7101 37.6597 13.091 40.8764 14.2235 43.9708C15.3368 47.1047 17.2909 50.0622 20.086 52.8433C22.9319 55.6493 26.7685 58.2296 31.5957 60.5845C36.423 62.9393 40.7928 64.3622 44.7051 64.8531C48.6682 65.3687 52.2273 65.1007 55.3824 64.0489C58.5182 63.0367 61.2623 61.3445 63.6147 58.9724C66.0179 56.6251 68.0574 53.7337 69.7333 50.2983L72.9116 43.783C74.5875 40.3476 75.6203 36.9407 76.0102 33.5624C76.4317 30.2484 76.0858 27.0244 74.9726 23.8905C73.84 20.796 71.8605 17.8261 69.0339 14.9807C66.2388 12.1996 62.4276 9.63161 57.6003 7.27677ZM58.3227 5.796C63.5057 8.32436 67.6025 11.0806 70.6131 14.0646C73.6745 17.0734 75.8092 20.2412 77.0171 23.5679C78.2249 26.8947 78.5954 30.3262 78.1285 33.8625C77.6931 37.463 76.5893 41.0797 74.8171 44.7125L71.6388 51.2279C70.5215 53.5181 69.2939 55.5834 67.9558 57.4238C66.6492 59.3284 64.9809 61.0076 62.9506 62.4614C60.9712 63.94 58.5441 65.1758 55.6694 66.1687C52.8261 67.2259 49.2934 68.0201 45.0713 68.5513C41.9178 69.2128 38.1817 69.1989 33.8629 68.5098C29.5441 67.8206 25.0727 66.3482 20.4486 64.0925C15.3165 61.5889 11.2451 58.8451 8.2345 55.861C5.20462 52.9165 3.11114 49.7932 1.95406 46.4913C0.7269 43.204 0.3468 39.7923 0.813757 36.256C1.21064 32.7344 2.28553 29.177 4.03844 25.5836L7.21677 19.0683C9.18157 15.0406 11.5959 11.5743 14.4597 8.66959C17.3235 5.76483 20.7272 3.88113 24.6707 3.01848C28.3094 2.00711 31.5933 1.33598 34.5226 1.00511C37.5026 0.699022 40.3128 0.676696 42.9531 0.93813C45.5742 1.23905 48.1304 1.80169 50.622 2.62603C53.1135 3.45037 55.6804 4.50703 58.3227 5.796ZM31.3183 31.5587C30.567 33.0987 30.0322 34.6465 29.7137 36.2021C29.4267 37.8219 29.4805 39.388 29.8751 40.9003C30.2696 42.4127 31.0592 43.8244 32.2439 45.1356C33.4601 46.511 35.1607 47.7317 37.3456 48.7975C38.5652 49.3925 39.7408 49.8193 40.8727 50.0782C42.2722 48.7566 43.4343 47.1482 44.3589 45.2528L47.5372 38.7374C48.3078 37.1579 48.8365 35.5583 49.1234 33.9384C49.4104 32.3186 49.3662 30.7327 48.9909 29.1809C48.5964 27.6686 47.791 26.2247 46.5748 24.8493C45.3586 23.4738 43.6326 22.2408 41.3968 21.1501C40.1773 20.5552 39.1225 20.1384 38.2324 19.8998C37.4722 20.5555 36.7847 21.32 36.17 22.1934C35.5552 23.0667 34.9975 24.0167 34.4966 25.0433L31.3183 31.5587Z" fill="black"/>
</svg>
